<svg aria-hidden="true" style="position: absolute; width: 0; height: 0; overflow: hidden;" version="1.1" xmlns="http://www.w3.org/2000/svg" xmlns:xlink="http://www.w3.org/1999/xlink">
<defs>
<symbol id="adv-weight" viewBox="0 0 32 32">
<path d="M14.178 0.547c-3.974 0.589-7.247 2.796-8.452 5.685-0.384 0.913-0.487 1.474-0.487 2.573 0.007 0.812 0.036 1.114 0.163 1.552 0.258 0.862 0.443 1.301 0.827 1.92l0.356 0.574-0.4 0.489c-3.154 3.924-3.501 9.444-0.871 13.793 0.982 1.631 2.586 3.235 4.151 4.169l0.466 0.273 12.743-0.108 0.302-0.165c1.057-0.596 2.548-1.926 3.383-3.004 1.208-1.569 2.064-3.472 2.413-5.546l0.010-0.074c0.118-0.74 0.118-2.933-0.007-3.63-0.377-2.148-1.182-3.988-2.452-5.62-0.244-0.309-0.436-0.568-0.436-0.589 0-0.014 0.133-0.237 0.288-0.489 0.362-0.575 0.687-1.316 0.864-1.962 0.199-0.719 0.199-2.516 0-3.235-0.709-2.551-2.836-4.679-5.843-5.851-0.843-0.331-2.284-0.683-3.214-0.797-0.864-0.101-2.999-0.080-3.804 0.043zM18.676 1.718c3.945 0.769 6.834 3.184 7.365 6.16 0.118 0.668 0.044 1.804-0.155 2.436-0.2 0.619-0.569 1.345-1.004 1.963-0.178 0.252-0.325 0.54-0.325 0.633s0.155 0.338 0.377 0.582c1.846 2.048 2.821 4.614 2.821 7.388-0.007 3.156-1.219 5.923-3.553 8.093-0.399 0.373-0.968 0.841-1.271 1.042l-0.554 0.373-12.211 0.051-0.473-0.302c-1.714-1.114-3.258-2.954-4.115-4.908-1.078-2.472-1.189-5.34-0.31-7.913 0.466-1.337 1.086-2.429 2.031-3.58 0.385-0.46 0.562-0.733 0.562-0.862 0-0.108-0.192-0.46-0.444-0.827-0.886-1.287-1.248-2.717-1.034-4.068 0.222-1.365 0.842-2.487 1.987-3.601 1.493-1.444 3.576-2.4 6.021-2.76 1.012-0.151 3.25-0.093 4.284 0.1z"></path>
<path d="M14.509 2.983c-3.028 0.496-5.4 2.178-6.175 4.385-0.178 0.495-0.207 0.69-0.207 1.401s0.029 0.907 0.207 1.402c0.11 0.316 0.317 0.755 0.458 0.978 0.384 0.618 0.554 0.64 1.316 0.18 1.094-0.674 2.368-1.19 3.727-1.474l0.078-0.014c0.916-0.187 2.674-0.259 3.671-0.144 1.558 0.18 3.25 0.74 4.602 1.538 0.384 0.223 0.776 0.411 0.871 0.411 0.562 0 1.278-1.618 1.278-2.876 0-2.796-2.674-5.189-6.463-5.786-0.805-0.129-2.587-0.129-3.362 0zM18.166 4.133c1.271 0.273 2.437 0.791 3.317 1.473 1.182 0.913 1.817 2.186 1.713 3.414-0.036 0.489-0.221 1.15-0.332 1.222-0.030 0.014-0.444-0.158-0.916-0.388-0.926-0.453-2.004-0.832-3.131-1.081l-0.097-0.018c-0.687-0.144-0.975-0.165-2.511-0.158-1.515 0-1.832 0.021-2.489 0.158-1.138 0.244-2.025 0.547-3.118 1.064-1.1 0.524-1.042 0.532-1.241-0.116-0.258-0.841-0.096-1.955 0.406-2.796 0.267-0.445 0.997-1.186 1.529-1.553 1.012-0.697 1.899-1.013 3.804-1.358 0.391-0.071 2.564 0.029 3.066 0.137zM16.963 13.404c-0.207 0.26-0.207 0.504 0.007 0.712 0.14 0.137 0.281 0.172 0.791 0.209 1.034 0.075 1.983 0.38 2.815 0.865l-0.031-0.017c0.606 0.359 1.529 1.228 1.943 1.854 0.613 0.898 1.034 2.185 1.034 3.133 0 0.331 0.030 0.431 0.185 0.575 0.236 0.237 0.547 0.237 0.776 0 0.163-0.165 0.169-0.208 0.125-0.913-0.207-3.478-3.184-6.382-6.744-6.576l-0.74-0.044-0.162 0.202z"></path>
</symbol>
<symbol id="adv-ice" viewBox="0 0 32 32">
<path d="M16.108 0.107c0.080 0.215 0.241 1.252 0.241 1.573 0 0.003 0 0.007 0 0.011 0 0.818-0.318 1.561-0.838 2.114l0.001-0.002c-0.449 0.482-0.898 0.749-1.975 1.185-1.198 0.489-1.694 0.783-2.256 1.339-0.569 0.569-0.904 1.191-1.024 1.922-0.134 0.796 0 1.358 0.408 1.68l0.207 0.16-0.328 0.208c-0.662 0.436-1.867 1.46-2.075 1.774-0.402 0.603-0.362 1.164 0.093 1.393l0.214 0.107-0.241 0.228c-0.362 0.341-0.436 0.576-0.382 1.191 0.034 0.409 0.020 0.63-0.073 0.964-0.114 0.436-0.114 0.442 0.033 0.75 0.148 0.301 0.563 0.683 0.938 0.844 0.18 0.080 0.187 0.107 0.228 0.723 0.020 0.356 0.053 1.486 0.080 2.517 0.020 1.031 0.068 1.975 0.107 2.089 0.034 0.12 0.161 0.281 0.276 0.361 0.388 0.268 0.656 0.556 0.829 0.891 0.195 0.382 0.409 1.319 1.058 4.559l0.455 2.276 0.282 0.268c0.535 0.529 1.56 0.77 3.247 0.77 1.693 0 2.704-0.235 3.24-0.764l0.288-0.274 0.414-2.109c0.916-4.612 0.997-4.867 1.714-5.436 0.22-0.181 0.436-0.402 0.475-0.502 0.047-0.114 0.094-0.991 0.127-2.316 0.027-1.178 0.068-2.343 0.094-2.591l0.040-0.448 0.436-0.329c0.548-0.421 0.763-0.803 0.763-1.392-0.006-0.696-0.462-1.46-1.292-2.142l-0.396-0.321 0.195-0.276c0.81-1.117 0.301-2.664-1.205-3.694l-0.455-0.315 0.167-0.174c0.743-0.796 0.864-3.173 0.241-4.827-0.374-0.984-1.232-2.055-2.283-2.845-0.514-0.388-1.934-1.245-2.060-1.245-0.027 0-0.027 0.047-0.006 0.107zM18.036 2.444c0.356 0.348 0.783 0.823 0.951 1.064 0.997 1.393 1.252 3.14 0.649 4.426-0.241 0.522-0.964 1.298-1.634 1.76-1.024 0.71-3.327 1.902-4.933 2.557-2.584 1.052-4.084 1.252-4.258 0.563-0.068-0.261 0.127-0.468 0.951-1.018 0.742-0.508 4.076-2.986 4.136-3.086 0.020-0.027-0.321 0.127-0.749 0.341-1.452 0.737-2.142 0.596-2.108-0.428 0.020-0.743 0.556-1.587 1.298-2.068 0.188-0.12 0.771-0.388 1.307-0.603 1.76-0.709 2.296-1.071 2.892-1.961 0.356-0.529 0.743-1.507 0.77-1.922 0.007-0.147 0.034-0.261 0.053-0.261s0.322 0.288 0.676 0.636zM19.863 10.050c0.489 0.274 0.997 0.743 1.218 1.111 0.389 0.662 0.188 1.325-0.649 2.169-0.91 0.924-2.463 1.808-4.171 2.37-1.573 0.516-3.079 0.756-5.236 0.83l-1.339 0.047 0.871 0.053c1.124 0.074 3.3 0.007 4.143-0.127 2.243-0.356 4.151-1.065 5.516-2.042 0.308-0.221 0.629-0.402 0.716-0.402 0.221 0 1.185 0.924 1.38 1.312 0.107 0.221 0.133 0.382 0.114 0.596-0.1 0.891-1.186 1.366-3.803 1.68-3.2 0.382-7.384 0.007-9.172-0.816-0.844-0.388-0.984-0.61-0.77-1.198 0.067-0.188 0.080-0.409 0.053-0.724-0.034-0.415-0.027-0.468 0.12-0.622 0.335-0.362 0.898-0.569 2.96-1.092 0.723-0.187 1.707-0.482 2.175-0.656 1.138-0.415 3.274-1.493 4.264-2.156 0.931-0.616 1.065-0.643 1.607-0.334zM10.972 18.244c1.406 0.409 2.652 0.529 4.968 0.482 1.74-0.033 2.812-0.14 4.357-0.415 0.316-0.053 0.589-0.1 0.623-0.1 0.074 0 0.053 2.571-0.027 3.247-0.087 0.716-0.282 1.272-0.489 1.406-0.214 0.14-1.285 0.288-2.718 0.368-2.939 0.16-5.958 0-6.895-0.375-0.508-0.207-0.563-0.476-0.569-2.959 0-1.653 0.013-1.881 0.1-1.847 0.053 0.020 0.348 0.107 0.649 0.194zM12.559 23.934c0.482 0.060 1.004 0.12 1.164 0.14l0.289 0.034-0.255 0.281c-0.328 0.355-0.83 1.064-1.011 1.426-0.207 0.415-0.275 0.442-0.582 0.275l-0.261-0.148-0.147-0.91c-0.078-0.506-0.143-0.863-0.216-1.217l0.028 0.165c-0.060-0.173-0.121-0.173 0.99-0.046zM19.696 23.86c0 0.013-0.034 0.187-0.068 0.382-0.040 0.2-0.207 1.292-0.374 2.429-0.341 2.377-0.569 3.494-0.777 3.869-0.288 0.502-0.978 0.796-2.095 0.891-0.436 0.034-1.748-0.053-1.821-0.121-0.053-0.060 1.098-1.486 1.279-1.58 0.167-0.094 0.213-0.080 0.782 0.213 0.663 0.349 0.998 0.403 0.998 0.181s-0.174-0.436-0.603-0.729c-0.395-0.282-0.535-0.443-0.535-0.63 0-0.053 0.194-0.355 0.428-0.669s0.575-0.817 0.749-1.118l0.329-0.542 0.3 0.041c0.609 0.087 0.77 0.080 0.75-0.053-0.013-0.068-0.127-0.261-0.255-0.422-0.127-0.167-0.228-0.335-0.228-0.368 0-0.127 0.622-1.299 0.824-1.547 0.174-0.214 0.315-0.322 0.315-0.228zM15.512 24.396c0.334 0.221 1.593 1.313 1.673 1.446 0.034 0.060-1.258 2.082-1.513 2.37-0.027 0.034-0.167-0.033-0.308-0.14-0.312-0.235-0.692-0.499-1.080-0.752l-0.085-0.052-0.904-0.596 0.542-0.917c0.964-1.613 0.944-1.587 1.151-1.587 0.107 0 0.341 0.1 0.523 0.228zM18.049 24.636c-0.235 0.288-0.428 0.469-0.508 0.469-0.174 0-0.456-0.154-0.931-0.502l-0.396-0.288 0.791-0.047c0.348-0.013 0.665-0.034 0.98-0.065l-0.064 0.005c0.536-0.087 0.536-0.080 0.128 0.428zM12.988 27.857c0.616 0.241 1.66 0.81 1.962 1.065 0.214 0.173 0.214 0.187 0.127 0.401-0.141 0.281-0.279 0.516-0.43 0.741l0.015-0.024c-0.128 0.191-0.277 0.434-0.417 0.682l-0.032 0.061c-0.213 0.415-0.281 0.449-0.723 0.329-0.476-0.141-0.729-0.382-0.863-0.818-0.181-0.609-0.469-2.329-0.436-2.597 0.013-0.1 0.294-0.040 0.796 0.161z"></path>
</symbol>
<symbol id="adv-cow" viewBox="0 0 31 32">
<path d="M6.002 0.778c-0.254 0.219-0.98 1.732-1.24 2.558-0.31 1.024-0.415 1.792-0.374 2.851 0.056 1.514 0.437 2.662 1.275 3.861 0.219 0.315 0.395 0.585 0.395 0.607 0 0.015-0.134 0.029-0.303 0.029-0.726 0-2.086 0.241-3.128 0.555-1.655 0.497-2.627 1.367-2.627 2.34 0 0.343 0.31 0.928 0.641 1.228 0.641 0.578 2.043 1.126 3.55 1.389 0.521 0.095 2.071 0.256 2.416 0.264 0.063 0 0.085 0.336 0.085 1.44 0 0.951 0.035 1.689 0.106 2.142 0.253 1.623 1.042 3.342 2.084 4.555l0.36 0.417-0.24 0.387c-0.352 0.548-0.486 0.965-0.528 1.586-0.106 1.492 0.823 2.815 2.621 3.744 3.422 1.776 8.741 1.082 10.735-1.404 0.972-1.214 1.085-2.603 0.317-3.861l-0.24-0.388 0.43-0.519c0.803-0.965 1.324-1.93 1.718-3.152 0.331-1.038 0.458-2.040 0.458-3.626 0-0.724 0.021-1.323 0.056-1.323 0.324-0.008 1.881-0.176 2.374-0.264 1.514-0.263 2.889-0.804 3.55-1.389 0.331-0.3 0.641-0.885 0.641-1.228 0-1.083-1.098-1.96-3.142-2.486-0.669-0.176-1.93-0.387-2.543-0.424l-0.289-0.023 0.317-0.438c0.394-0.534 0.887-1.571 1.078-2.252 0.535-1.967 0.204-4.255-0.944-6.441-0.48-0.905-0.811-1.117-1.198-0.759-0.148 0.138-0.212 0.329-0.352 1.016-0.437 2.186-1.247 3.92-2.43 5.199l-0.521 0.571h-11.144l-0.465-0.505c-1.155-1.271-1.994-3.070-2.43-5.264-0.141-0.688-0.204-0.877-0.352-1.016-0.233-0.212-0.458-0.205-0.718 0.022zM6.903 5.114c0.374 0.819 0.839 1.586 1.387 2.295l0.437 0.563-0.457 0.344c-0.43 0.329-0.831 0.797-1.142 1.33l-0.133 0.242-0.338-0.461c-1.155-1.594-1.444-3.546-0.831-5.571 0.296-0.98 0.289-0.973 0.556-0.125 0.127 0.409 0.367 1.031 0.521 1.382zM25.238 3.571c0.255 0.709 0.403 1.526 0.403 2.378 0 0.030-0 0.060-0.001 0.090l0-0.005c0 1.331-0.352 2.456-1.091 3.465l-0.331 0.453-0.247-0.417c-0.319-0.54-0.732-0.991-1.22-1.344l-0.013-0.009c-0.19-0.124-0.337-0.248-0.337-0.263 0-0.022 0.133-0.19 0.303-0.373 0.782-0.87 1.62-2.435 2.036-3.779 0.126-0.418 0.253-0.761 0.274-0.761s0.127 0.256 0.225 0.562zM21.64 8.916c0.782 0.329 1.528 1.271 1.648 2.069 0.063 0.439 0.211 0.717 0.401 0.761 0.085 0.015 0.669 0.066 1.296 0.109 2.225 0.147 3.979 0.622 4.727 1.272 0.345 0.307 0.31 0.563-0.105 0.878-0.831 0.629-2.627 1.104-4.459 1.185-1.212 0.051-1.465 0.086-1.628 0.255-0.119 0.125-0.133 0.256-0.133 1.579 0 1.792-0.092 2.823-0.317 3.656-0.317 1.133-0.944 2.34-1.676 3.196l-0.303 0.351-0.627-0.373c-0.669-0.415-1.445-0.74-2.272-0.933l-0.053-0.010c-2.67-0.636-5.622-0.248-7.607 1.002l-0.458 0.292-0.289-0.343c-0.394-0.461-1.014-1.448-1.261-2.003-0.542-1.258-0.704-2.282-0.704-4.534 0-2.186 0.112-2.026-1.507-2.113-2.071-0.11-3.65-0.483-4.643-1.111-0.733-0.468-0.612-0.885 0.409-1.375 0.979-0.476 2.324-0.76 4.191-0.877 1.451-0.095 1.486-0.117 1.62-0.819 0.197-1.060 0.979-1.937 1.966-2.216 0.246-0.073 1.627-0.087 5.853-0.080l5.53 0.014 0.401 0.169zM17.68 24.051c1.726 0.424 3.015 1.213 3.572 2.193 0.134 0.227 0.19 0.461 0.218 0.819 0.029 0.446 0.008 0.555-0.162 0.921-0.782 1.661-3.656 2.756-6.579 2.508-3.515-0.292-5.826-2.252-4.917-4.175 0.493-1.038 2.162-2.032 3.923-2.326 0.289-0.043 0.578-0.095 0.634-0.11s0.691-0.015 1.41 0c0.978 0.023 1.45 0.066 1.901 0.169z"></path>
<path d="M10.693 12.579c-0.437 0.147-0.733 0.337-1.127 0.732-0.346 0.329-0.374 0.716-0.085 0.95 0.268 0.219 0.521 0.19 0.845-0.095 0.409-0.359 0.726-0.505 1.121-0.505 0.394-0.007 0.697 0.132 1.119 0.505 0.324 0.285 0.578 0.314 0.846 0.095 0.141-0.118 0.183-0.212 0.183-0.432 0-0.226-0.049-0.329-0.297-0.577-0.697-0.702-1.732-0.972-2.606-0.673zM18.906 12.572c-0.45 0.168-1.028 0.548-1.26 0.833-0.226 0.278-0.233 0.592 0 0.827 0.232 0.248 0.514 0.233 0.852-0.044 0.831-0.688 1.451-0.709 2.219-0.073 0.197 0.169 0.422 0.3 0.493 0.3 0.345 0 0.627-0.307 0.627-0.673 0-0.233-0.585-0.775-1.113-1.031-0.585-0.285-1.282-0.336-1.817-0.138zM11.715 26.106c-0.204 0.197-0.275 0.483-0.169 0.709 0.078 0.183 0.197 0.256 0.683 0.387 0.219 0.058 0.31 0.131 0.387 0.314 0.099 0.242 0.106 0.242 0.649 0.264l0.542 0.022v-0.205c-0.007-0.292-0.169-0.716-0.381-1.008-0.246-0.337-0.676-0.556-1.162-0.6-0.331-0.029-0.415-0.015-0.549 0.118zM18.442 26.054c-0.352 0.095-0.859 0.571-1 0.943-0.070 0.196-0.118 0.423-0.134 0.658l-0 0.008c-0.014 0.314 0.014 0.387 0.183 0.541 0.415 0.365 0.965 0.080 0.965-0.505 0-0.285 0.211-0.483 0.585-0.555 0.394-0.073 0.535-0.233 0.542-0.607 0-0.489-0.437-0.68-1.142-0.483z"></path>
</symbol>
<symbol id="header-arrow" viewBox="0 0 82 32">
<path fill="#fcfcfc" style="fill: var(--color1, #fcfcfc)" d="M81.414 17.414c0.362-0.362 0.586-0.862 0.586-1.414s-0.224-1.052-0.586-1.414l-12.728-12.728c-0.364-0.377-0.874-0.611-1.439-0.611-1.105 0-2 0.895-2 2 0 0.565 0.234 1.074 0.61 1.438l0.001 0.001 11.314 11.314-11.314 11.314c-0.347 0.359-0.561 0.849-0.561 1.389 0 1.105 0.895 2 2 2 0.54 0 1.030-0.214 1.39-0.562l-0.001 0.001 12.728-12.728zM0 18h80v-4h-80v4z"></path>
</symbol>
<symbol id="header-bg-points-desk" viewBox="0 0 100 32">
<path fill="#f8d24e" style="fill: var(--color2, #f8d24e)" d="M45.691 25.73c0 0.287-0.218 0.519-0.487 0.519s-0.487-0.232-0.487-0.519c0-0.287 0.218-0.519 0.487-0.519s0.487 0.232 0.487 0.519z"></path>
<path fill="#f8d24e" style="fill: var(--color2, #f8d24e)" d="M46.827 25.038c0 0.287-0.218 0.519-0.487 0.519s-0.487-0.232-0.487-0.519c0-0.287 0.218-0.519 0.487-0.519s0.487 0.232 0.487 0.519z"></path>
<path fill="#f8d24e" style="fill: var(--color2, #f8d24e)" d="M44.798 27.633c0 0.287-0.218 0.519-0.487 0.519s-0.487-0.232-0.487-0.519c0-0.287 0.218-0.519 0.487-0.519s0.487 0.232 0.487 0.519z"></path>
<path fill="#f8d24e" style="fill: var(--color2, #f8d24e)" d="M45.853 26.941c0 0.287-0.218 0.519-0.487 0.519s-0.487-0.232-0.487-0.519c0-0.287 0.218-0.519 0.487-0.519s0.487 0.232 0.487 0.519z"></path>
<path fill="#f8d24e" style="fill: var(--color2, #f8d24e)" d="M47.070 26.163c0 0.287-0.218 0.519-0.487 0.519s-0.487-0.232-0.487-0.519c0-0.287 0.218-0.519 0.487-0.519s0.487 0.232 0.487 0.519z"></path>
<path fill="#f8d24e" style="fill: var(--color2, #f8d24e)" d="M48.206 25.471c0 0.287-0.218 0.519-0.487 0.519s-0.487-0.232-0.487-0.519c0-0.287 0.218-0.519 0.487-0.519s0.487 0.232 0.487 0.519z"></path>
<path fill="#f8d24e" style="fill: var(--color2, #f8d24e)" d="M46.583 27.72c0 0.287-0.218 0.519-0.487 0.519s-0.487-0.232-0.487-0.519c0-0.287 0.218-0.519 0.487-0.519s0.487 0.232 0.487 0.519z"></path>
<path fill="#f8d24e" style="fill: var(--color2, #f8d24e)" d="M47.638 27.028c0 0.287-0.218 0.519-0.487 0.519s-0.487-0.232-0.487-0.519c0-0.287 0.218-0.519 0.487-0.519s0.487 0.232 0.487 0.519z"></path>
<path fill="#f8d24e" style="fill: var(--color2, #f8d24e)" d="M48.856 26.249c0 0.287-0.218 0.519-0.487 0.519s-0.487-0.232-0.487-0.519c0-0.287 0.218-0.519 0.487-0.519s0.487 0.232 0.487 0.519z"></path>
<path fill="#f8d24e" style="fill: var(--color2, #f8d24e)" d="M49.992 25.557c0 0.287-0.218 0.519-0.487 0.519s-0.487-0.232-0.487-0.519c0-0.287 0.218-0.519 0.487-0.519s0.487 0.232 0.487 0.519z"></path>
<path fill="#f8d24e" style="fill: var(--color2, #f8d24e)" d="M48.693 27.72c0 0.287-0.218 0.519-0.487 0.519s-0.487-0.232-0.487-0.519c0-0.287 0.218-0.519 0.487-0.519s0.487 0.232 0.487 0.519z"></path>
<path fill="#f8d24e" style="fill: var(--color2, #f8d24e)" d="M49.748 27.028c0 0.287-0.218 0.519-0.487 0.519s-0.487-0.232-0.487-0.519c0-0.287 0.218-0.519 0.487-0.519s0.487 0.232 0.487 0.519z"></path>
<path fill="#f8d24e" style="fill: var(--color2, #f8d24e)" d="M50.966 26.249c0 0.287-0.218 0.519-0.487 0.519s-0.487-0.232-0.487-0.519c0-0.287 0.218-0.519 0.487-0.519s0.487 0.232 0.487 0.519z"></path>
<path fill="#f8d24e" style="fill: var(--color2, #f8d24e)" d="M52.102 25.557c0 0.287-0.218 0.519-0.487 0.519s-0.487-0.232-0.487-0.519c0-0.287 0.218-0.519 0.487-0.519s0.487 0.232 0.487 0.519z"></path>
<path fill="#f8d24e" style="fill: var(--color2, #f8d24e)" d="M50.479 27.633c0 0.287-0.218 0.519-0.487 0.519s-0.487-0.232-0.487-0.519c0-0.287 0.218-0.519 0.487-0.519s0.487 0.232 0.487 0.519z"></path>
<path fill="#f8d24e" style="fill: var(--color2, #f8d24e)" d="M51.534 26.941c0 0.287-0.218 0.519-0.487 0.519s-0.487-0.232-0.487-0.519c0-0.287 0.218-0.519 0.487-0.519s0.487 0.232 0.487 0.519z"></path>
<path fill="#f8d24e" style="fill: var(--color2, #f8d24e)" d="M52.751 26.163c0 0.287-0.218 0.519-0.487 0.519s-0.487-0.232-0.487-0.519c0-0.287 0.218-0.519 0.487-0.519s0.487 0.232 0.487 0.519z"></path>
<path fill="#f8d24e" style="fill: var(--color2, #f8d24e)" d="M53.887 25.471c0 0.287-0.218 0.519-0.487 0.519s-0.487-0.232-0.487-0.519c0-0.287 0.218-0.519 0.487-0.519s0.487 0.232 0.487 0.519z"></path>
<path fill="#f8d24e" style="fill: var(--color2, #f8d24e)" d="M52.508 27.547c0 0.287-0.218 0.519-0.487 0.519s-0.487-0.232-0.487-0.519c0-0.287 0.218-0.519 0.487-0.519s0.487 0.232 0.487 0.519z"></path>
<path fill="#f8d24e" style="fill: var(--color2, #f8d24e)" d="M53.563 26.855c0 0.287-0.218 0.519-0.487 0.519s-0.487-0.232-0.487-0.519c0-0.287 0.218-0.519 0.487-0.519s0.487 0.232 0.487 0.519z"></path>
<path fill="#f8d24e" style="fill: var(--color2, #f8d24e)" d="M54.78 26.076c0 0.287-0.218 0.519-0.487 0.519s-0.487-0.232-0.487-0.519c0-0.287 0.218-0.519 0.487-0.519s0.487 0.232 0.487 0.519z"></path>
<path fill="#f8d24e" style="fill: var(--color2, #f8d24e)" d="M55.916 25.384c0 0.287-0.218 0.519-0.487 0.519s-0.487-0.232-0.487-0.519c0-0.287 0.218-0.519 0.487-0.519s0.487 0.232 0.487 0.519z"></path>
<path fill="#f8d24e" style="fill: var(--color2, #f8d24e)" d="M54.374 25.298c0 0.287-0.218 0.519-0.487 0.519s-0.487-0.232-0.487-0.519c0-0.287 0.218-0.519 0.487-0.519s0.487 0.232 0.487 0.519z"></path>
<path fill="#f8d24e" style="fill: var(--color2, #f8d24e)" d="M55.429 24.606c0 0.287-0.218 0.519-0.487 0.519s-0.487-0.232-0.487-0.519c0-0.287 0.218-0.519 0.487-0.519s0.487 0.232 0.487 0.519z"></path>
<path fill="#f8d24e" style="fill: var(--color2, #f8d24e)" d="M56.647 23.827c0 0.287-0.218 0.519-0.487 0.519s-0.487-0.232-0.487-0.519c0-0.287 0.218-0.519 0.487-0.519s0.487 0.232 0.487 0.519z"></path>
<path fill="#f8d24e" style="fill: var(--color2, #f8d24e)" d="M57.783 23.135c0 0.287-0.218 0.519-0.487 0.519s-0.487-0.232-0.487-0.519c0-0.287 0.218-0.519 0.487-0.519s0.487 0.232 0.487 0.519z"></path>
</symbol>
<symbol id="header-bg-points-mob" viewBox="0 0 204 32">
<path fill="#f8d24e" style="fill: var(--color2, #f8d24e)" d="M155.56 29.024c0 0.962-0.74 1.743-1.654 1.743s-1.654-0.78-1.654-1.743c0-0.962 0.74-1.743 1.654-1.743s1.654 0.78 1.654 1.743z"></path>
<path fill="#f8d24e" style="fill: var(--color2, #f8d24e)" d="M159.144 26.7c0 0.962-0.74 1.743-1.654 1.743s-1.654-0.78-1.654-1.743c0-0.962 0.74-1.743 1.654-1.743s1.654 0.78 1.654 1.743z"></path>
<path fill="#f8d24e" style="fill: var(--color2, #f8d24e)" d="M163.277 24.086c0 0.962-0.74 1.743-1.654 1.743s-1.654-0.78-1.654-1.743c0-0.962 0.74-1.743 1.654-1.743s1.654 0.78 1.654 1.743z"></path>
<path fill="#f8d24e" style="fill: var(--color2, #f8d24e)" d="M167.137 21.763c0 0.962-0.74 1.743-1.654 1.743s-1.654-0.78-1.654-1.743c0-0.962 0.74-1.743 1.654-1.743s1.654 0.78 1.654 1.743z"></path>
<path fill="#f8d24e" style="fill: var(--color2, #f8d24e)" d="M164.931 27.862c0 0.962-0.74 1.743-1.654 1.743s-1.654-0.78-1.654-1.743c0-0.962 0.74-1.743 1.654-1.743s1.654 0.78 1.654 1.743z"></path>
<path fill="#f8d24e" style="fill: var(--color2, #f8d24e)" d="M168.515 25.539c0 0.962-0.74 1.743-1.654 1.743s-1.654-0.78-1.654-1.743c0-0.962 0.74-1.743 1.654-1.743s1.654 0.78 1.654 1.743z"></path>
<path fill="#f8d24e" style="fill: var(--color2, #f8d24e)" d="M172.649 22.924c0 0.962-0.74 1.743-1.654 1.743s-1.654-0.78-1.654-1.743c0-0.962 0.74-1.743 1.654-1.743s1.654 0.78 1.654 1.743z"></path>
<path fill="#f8d24e" style="fill: var(--color2, #f8d24e)" d="M176.509 20.601c0 0.962-0.74 1.743-1.654 1.743s-1.654-0.78-1.654-1.743c0-0.962 0.74-1.743 1.654-1.743s1.654 0.78 1.654 1.743z"></path>
<path fill="#f8d24e" style="fill: var(--color2, #f8d24e)" d="M172.925 26.991c0 0.962-0.74 1.743-1.654 1.743s-1.654-0.78-1.654-1.743c0-0.962 0.74-1.743 1.654-1.743s1.654 0.78 1.654 1.743z"></path>
<path fill="#f8d24e" style="fill: var(--color2, #f8d24e)" d="M176.509 24.667c0 0.962-0.74 1.743-1.654 1.743s-1.654-0.78-1.654-1.743c0-0.962 0.74-1.743 1.654-1.743s1.654 0.78 1.654 1.743z"></path>
<path fill="#f8d24e" style="fill: var(--color2, #f8d24e)" d="M180.643 22.053c0 0.962-0.74 1.743-1.654 1.743s-1.654-0.78-1.654-1.743c0-0.962 0.74-1.743 1.654-1.743s1.654 0.78 1.654 1.743z"></path>
<path fill="#f8d24e" style="fill: var(--color2, #f8d24e)" d="M184.5 19.73c0 0.962-0.74 1.743-1.654 1.743s-1.654-0.78-1.654-1.743c0-0.962 0.74-1.743 1.654-1.743s1.654 0.78 1.654 1.743z"></path>
<path fill="#f8d24e" style="fill: var(--color2, #f8d24e)" d="M180.642 25.829c0 0.962-0.74 1.743-1.654 1.743s-1.654-0.78-1.654-1.743c0-0.962 0.74-1.743 1.654-1.743s1.654 0.78 1.654 1.743z"></path>
<path fill="#f8d24e" style="fill: var(--color2, #f8d24e)" d="M184.225 23.505c0 0.962-0.74 1.743-1.654 1.743s-1.654-0.78-1.654-1.743c0-0.962 0.74-1.743 1.654-1.743s1.654 0.78 1.654 1.743z"></path>
<path fill="#f8d24e" style="fill: var(--color2, #f8d24e)" d="M188.359 20.892c0 0.962-0.74 1.743-1.654 1.743s-1.654-0.78-1.654-1.743c0-0.962 0.74-1.743 1.654-1.743s1.654 0.78 1.654 1.743z"></path>
<path fill="#f8d24e" style="fill: var(--color2, #f8d24e)" d="M192.218 18.568c0 0.962-0.74 1.743-1.654 1.743s-1.654-0.78-1.654-1.743c0-0.962 0.74-1.743 1.654-1.743s1.654 0.78 1.654 1.743z"></path>
<path fill="#f8d24e" style="fill: var(--color2, #f8d24e)" d="M183.123 29.024c0 0.962-0.74 1.743-1.654 1.743s-1.654-0.78-1.654-1.743c0-0.962 0.74-1.743 1.654-1.743s1.654 0.78 1.654 1.743z"></path>
<path fill="#f8d24e" style="fill: var(--color2, #f8d24e)" d="M186.707 26.7c0 0.962-0.74 1.743-1.654 1.743s-1.654-0.78-1.654-1.743c0-0.962 0.74-1.743 1.654-1.743s1.654 0.78 1.654 1.743z"></path>
<path fill="#f8d24e" style="fill: var(--color2, #f8d24e)" d="M191.667 29.315c0 0.962-0.74 1.743-1.654 1.743s-1.654-0.78-1.654-1.743c0-0.962 0.74-1.743 1.654-1.743s1.654 0.78 1.654 1.743z"></path>
<path fill="#f8d24e" style="fill: var(--color2, #f8d24e)" d="M190.841 24.086c0 0.962-0.74 1.743-1.654 1.743s-1.654-0.78-1.654-1.743c0-0.962 0.74-1.743 1.654-1.743s1.654 0.78 1.654 1.743z"></path>
<path fill="#f8d24e" style="fill: var(--color2, #f8d24e)" d="M195.802 26.7c0 0.962-0.74 1.743-1.654 1.743s-1.654-0.78-1.654-1.743c0-0.962 0.74-1.743 1.654-1.743s1.654 0.78 1.654 1.743z"></path>
<path fill="#f8d24e" style="fill: var(--color2, #f8d24e)" d="M199.661 29.315c0 0.962-0.74 1.743-1.654 1.743s-1.654-0.78-1.654-1.743c0-0.962 0.74-1.743 1.654-1.743s1.654 0.78 1.654 1.743z"></path>
<path fill="#f8d24e" style="fill: var(--color2, #f8d24e)" d="M194.7 21.763c0 0.962-0.74 1.743-1.654 1.743s-1.654-0.78-1.654-1.743c0-0.962 0.74-1.743 1.654-1.743s1.654 0.78 1.654 1.743z"></path>
<path fill="#f8d24e" style="fill: var(--color2, #f8d24e)" d="M199.661 24.376c0 0.962-0.74 1.743-1.654 1.743s-1.654-0.78-1.654-1.743c0-0.962 0.74-1.743 1.654-1.743s1.654 0.78 1.654 1.743z"></path>
<path fill="#f8d24e" style="fill: var(--color2, #f8d24e)" d="M203.52 26.991c0 0.962-0.74 1.743-1.654 1.743s-1.654-0.78-1.654-1.743c0-0.962 0.74-1.743 1.654-1.743s1.654 0.78 1.654 1.743z"></path>
<path fill="#f8d24e" style="fill: var(--color2, #f8d24e)" d="M138.749 9.854c0 0.962-0.74 1.743-1.654 1.743s-1.654-0.78-1.654-1.743c0-0.962 0.74-1.743 1.654-1.743s1.654 0.78 1.654 1.743z"></path>
<path fill="#f8d24e" style="fill: var(--color2, #f8d24e)" d="M142.332 7.53c0 0.962-0.74 1.743-1.654 1.743s-1.654-0.78-1.654-1.743c0-0.962 0.74-1.743 1.654-1.743s1.654 0.78 1.654 1.743z"></path>
<path fill="#f8d24e" style="fill: var(--color2, #f8d24e)" d="M146.467 4.916c0 0.962-0.74 1.743-1.654 1.743s-1.654-0.78-1.654-1.743c0-0.962 0.74-1.743 1.654-1.743s1.654 0.78 1.654 1.743z"></path>
<path fill="#f8d24e" style="fill: var(--color2, #f8d24e)" d="M150.325 2.593c0 0.962-0.74 1.743-1.654 1.743s-1.654-0.78-1.654-1.743c0-0.962 0.74-1.743 1.654-1.743s1.654 0.78 1.654 1.743z"></path>
<path fill="#f8d24e" style="fill: var(--color2, #f8d24e)" d="M131.858 9.563c0 0.962-0.74 1.743-1.654 1.743s-1.654-0.78-1.654-1.743c0-0.962 0.74-1.743 1.654-1.743s1.654 0.78 1.654 1.743z"></path>
<path fill="#f8d24e" style="fill: var(--color2, #f8d24e)" d="M135.441 7.24c0 0.962-0.74 1.743-1.654 1.743s-1.654-0.78-1.654-1.743c0-0.962 0.74-1.743 1.654-1.743s1.654 0.78 1.654 1.743z"></path>
<path fill="#f8d24e" style="fill: var(--color2, #f8d24e)" d="M139.575 4.625c0 0.962-0.74 1.743-1.654 1.743s-1.654-0.78-1.654-1.743c0-0.962 0.74-1.743 1.654-1.743s1.654 0.78 1.654 1.743z"></path>
<path fill="#f8d24e" style="fill: var(--color2, #f8d24e)" d="M143.434 2.302c0 0.962-0.74 1.743-1.654 1.743s-1.654-0.78-1.654-1.743c0-0.962 0.74-1.743 1.654-1.743s1.654 0.78 1.654 1.743z"></path>
<path fill="#f8d24e" style="fill: var(--color2, #f8d24e)" d="M147.292 29.024c0 0.962-0.74 1.743-1.654 1.743s-1.654-0.78-1.654-1.743c0-0.962 0.74-1.743 1.654-1.743s1.654 0.78 1.654 1.743z"></path>
<path fill="#f8d24e" style="fill: var(--color2, #f8d24e)" d="M150.874 26.7c0 0.962-0.74 1.743-1.654 1.743s-1.654-0.78-1.654-1.743c0-0.962 0.74-1.743 1.654-1.743s1.654 0.78 1.654 1.743z"></path>
<path fill="#f8d24e" style="fill: var(--color2, #f8d24e)" d="M155.009 24.086c0 0.962-0.74 1.743-1.654 1.743s-1.654-0.78-1.654-1.743c0-0.962 0.74-1.743 1.654-1.743s1.654 0.78 1.654 1.743z"></path>
<path fill="#f8d24e" style="fill: var(--color2, #f8d24e)" d="M158.868 21.763c0 0.962-0.74 1.743-1.654 1.743s-1.654-0.78-1.654-1.743c0-0.962 0.74-1.743 1.654-1.743s1.654 0.78 1.654 1.743z"></path>
<path fill="#f8d24e" style="fill: var(--color2, #f8d24e)" d="M142.883 27.282c0 0.962-0.74 1.743-1.654 1.743s-1.654-0.78-1.654-1.743c0-0.962 0.74-1.743 1.654-1.743s1.654 0.78 1.654 1.743z"></path>
<path fill="#f8d24e" style="fill: var(--color2, #f8d24e)" d="M146.466 24.958c0 0.962-0.74 1.743-1.654 1.743s-1.654-0.78-1.654-1.743c0-0.962 0.74-1.743 1.654-1.743s1.654 0.78 1.654 1.743z"></path>
<path fill="#f8d24e" style="fill: var(--color2, #f8d24e)" d="M150.599 22.344c0 0.962-0.74 1.743-1.654 1.743s-1.654-0.78-1.654-1.743c0-0.962 0.74-1.743 1.654-1.743s1.654 0.78 1.654 1.743z"></path>
<path fill="#f8d24e" style="fill: var(--color2, #f8d24e)" d="M154.459 20.020c0 0.962-0.74 1.743-1.654 1.743s-1.654-0.78-1.654-1.743c0-0.962 0.74-1.743 1.654-1.743s1.654 0.78 1.654 1.743z"></path>
<path fill="#f8d24e" style="fill: var(--color2, #f8d24e)" d="M144.536 21.182c0 0.962-0.74 1.743-1.654 1.743s-1.654-0.78-1.654-1.743c0-0.962 0.74-1.743 1.654-1.743s1.654 0.78 1.654 1.743z"></path>
<path fill="#f8d24e" style="fill: var(--color2, #f8d24e)" d="M148.119 18.858c0 0.962-0.74 1.743-1.654 1.743s-1.654-0.78-1.654-1.743c0-0.962 0.74-1.743 1.654-1.743s1.654 0.78 1.654 1.743z"></path>
<path fill="#f8d24e" style="fill: var(--color2, #f8d24e)" d="M152.254 16.244c0 0.962-0.74 1.743-1.654 1.743s-1.654-0.78-1.654-1.743c0-0.962 0.74-1.743 1.654-1.743s1.654 0.78 1.654 1.743z"></path>
<path fill="#f8d24e" style="fill: var(--color2, #f8d24e)" d="M156.113 13.92c0 0.962-0.74 1.743-1.654 1.743s-1.654-0.78-1.654-1.743c0-0.962 0.74-1.743 1.654-1.743s1.654 0.78 1.654 1.743z"></path>
<path fill="#f8d24e" style="fill: var(--color2, #f8d24e)" d="M144.536 11.016c0 0.962-0.74 1.743-1.654 1.743s-1.654-0.78-1.654-1.743c0-0.962 0.74-1.743 1.654-1.743s1.654 0.78 1.654 1.743z"></path>
<path fill="#f8d24e" style="fill: var(--color2, #f8d24e)" d="M148.119 8.692c0 0.962-0.74 1.743-1.654 1.743s-1.654-0.78-1.654-1.743c0-0.962 0.74-1.743 1.654-1.743s1.654 0.78 1.654 1.743z"></path>
<path fill="#f8d24e" style="fill: var(--color2, #f8d24e)" d="M152.254 6.077c0 0.962-0.74 1.743-1.654 1.743s-1.654-0.78-1.654-1.743c0-0.962 0.74-1.743 1.654-1.743s1.654 0.78 1.654 1.743z"></path>
<path fill="#f8d24e" style="fill: var(--color2, #f8d24e)" d="M156.113 3.754c0 0.962-0.74 1.743-1.654 1.743s-1.654-0.78-1.654-1.743c0-0.962 0.74-1.743 1.654-1.743s1.654 0.78 1.654 1.743z"></path>
<path fill="#f8d24e" style="fill: var(--color2, #f8d24e)" d="M143.709 16.534c0 0.962-0.74 1.743-1.654 1.743s-1.654-0.78-1.654-1.743c0-0.962 0.74-1.743 1.654-1.743s1.654 0.78 1.654 1.743z"></path>
<path fill="#f8d24e" style="fill: var(--color2, #f8d24e)" d="M147.293 14.211c0 0.962-0.74 1.743-1.654 1.743s-1.654-0.78-1.654-1.743c0-0.962 0.74-1.743 1.654-1.743s1.654 0.78 1.654 1.743z"></path>
<path fill="#f8d24e" style="fill: var(--color2, #f8d24e)" d="M151.426 11.597c0 0.962-0.74 1.743-1.654 1.743s-1.654-0.78-1.654-1.743c0-0.962 0.74-1.743 1.654-1.743s1.654 0.78 1.654 1.743z"></path>
<path fill="#f8d24e" style="fill: var(--color2, #f8d24e)" d="M155.285 9.273c0 0.962-0.74 1.743-1.654 1.743s-1.654-0.78-1.654-1.743c0-0.962 0.74-1.743 1.654-1.743s1.654 0.78 1.654 1.743z"></path>
<path fill="#f8d24e" style="fill: var(--color2, #f8d24e)" d="M126.345 8.111c0 0.962-0.74 1.743-1.654 1.743s-1.654-0.78-1.654-1.743c0-0.962 0.74-1.743 1.654-1.743s1.654 0.78 1.654 1.743z"></path>
<path fill="#f8d24e" style="fill: var(--color2, #f8d24e)" d="M129.929 5.787c0 0.962-0.74 1.743-1.654 1.743s-1.654-0.78-1.654-1.743c0-0.962 0.74-1.743 1.654-1.743s1.654 0.78 1.654 1.743z"></path>
<path fill="#f8d24e" style="fill: var(--color2, #f8d24e)" d="M134.063 3.173c0 0.962-0.74 1.743-1.654 1.743s-1.654-0.78-1.654-1.743c0-0.962 0.74-1.743 1.654-1.743s1.654 0.78 1.654 1.743z"></path>
<path fill="#f8d24e" style="fill: var(--color2, #f8d24e)" d="M132.134 9.853c0.913 0 1.654-0.781 1.654-1.743s-0.74-1.743-1.654-1.743-1.654 0.781-1.654 1.743c0 0.963 0.74 1.743 1.654 1.743z"></path>
<path fill="#f8d24e" style="fill: var(--color2, #f8d24e)" d="M56.089 21.046c0.14 0.965-0.488 1.868-1.404 2.016s-1.772-0.515-1.913-1.48c-0.14-0.965 0.488-1.868 1.404-2.016s1.772 0.515 1.913 1.48z"></path>
<path fill="#f8d24e" style="fill: var(--color2, #f8d24e)" d="M59.344 18.133c0.14 0.965-0.488 1.868-1.404 2.016s-1.772-0.515-1.913-1.48c-0.14-0.965 0.488-1.868 1.404-2.016s1.772 0.515 1.913 1.48z"></path>
<path fill="#f8d24e" style="fill: var(--color2, #f8d24e)" d="M63.109 14.842c0.14 0.965-0.488 1.868-1.404 2.016s-1.772-0.515-1.913-1.48c-0.14-0.965 0.488-1.868 1.404-2.016s1.772 0.515 1.913 1.48z"></path>
<path fill="#f8d24e" style="fill: var(--color2, #f8d24e)" d="M66.641 11.886c0.14 0.965-0.488 1.868-1.404 2.016s-1.772-0.515-1.913-1.48c-0.14-0.965 0.488-1.868 1.404-2.016s1.772 0.515 1.913 1.48z"></path>
<path fill="#f8d24e" style="fill: var(--color2, #f8d24e)" d="M3.482 21.473c0 0.997-0.779 1.805-1.741 1.805s-1.741-0.808-1.741-1.805c0-0.997 0.779-1.805 1.741-1.805s1.741 0.808 1.741 1.805z"></path>
<path fill="#f8d24e" style="fill: var(--color2, #f8d24e)" d="M7.252 19.067c0 0.997-0.779 1.805-1.741 1.805s-1.741-0.808-1.741-1.805c0-0.997 0.779-1.805 1.741-1.805s1.741 0.808 1.741 1.805z"></path>
<path fill="#f8d24e" style="fill: var(--color2, #f8d24e)" d="M11.605 16.36c0 0.997-0.779 1.805-1.741 1.805s-1.741-0.808-1.741-1.805c0-0.997 0.779-1.805 1.741-1.805s1.741 0.808 1.741 1.805z"></path>
<path fill="#f8d24e" style="fill: var(--color2, #f8d24e)" d="M15.666 13.953c0 0.997-0.779 1.805-1.741 1.805s-1.741-0.808-1.741-1.805c0-0.997 0.779-1.805 1.741-1.805s1.741 0.808 1.741 1.805z"></path>
<path fill="#f8d24e" style="fill: var(--color2, #f8d24e)" d="M5.222 25.984c0 0.997-0.779 1.805-1.741 1.805s-1.741-0.808-1.741-1.805c0-0.997 0.779-1.805 1.741-1.805s1.741 0.808 1.741 1.805z"></path>
<path fill="#f8d24e" style="fill: var(--color2, #f8d24e)" d="M8.994 23.578c0 0.997-0.779 1.805-1.741 1.805s-1.741-0.808-1.741-1.805c0-0.997 0.779-1.805 1.741-1.805s1.741 0.808 1.741 1.805z"></path>
<path fill="#f8d24e" style="fill: var(--color2, #f8d24e)" d="M13.347 20.871c0 0.997-0.779 1.805-1.741 1.805s-1.741-0.808-1.741-1.805c0-0.997 0.779-1.805 1.741-1.805s1.741 0.808 1.741 1.805z"></path>
<path fill="#f8d24e" style="fill: var(--color2, #f8d24e)" d="M17.407 18.465c0 0.997-0.779 1.805-1.741 1.805s-1.741-0.808-1.741-1.805c0-0.997 0.779-1.805 1.741-1.805s1.741 0.808 1.741 1.805z"></path>
<path fill="#f8d24e" style="fill: var(--color2, #f8d24e)" d="M9.573 28.39c0 0.997-0.779 1.805-1.741 1.805s-1.741-0.808-1.741-1.805c0-0.997 0.779-1.805 1.741-1.805s1.741 0.808 1.741 1.805z"></path>
<path fill="#f8d24e" style="fill: var(--color2, #f8d24e)" d="M13.345 25.984c0 0.997-0.779 1.805-1.741 1.805s-1.741-0.808-1.741-1.805c0-0.997 0.779-1.805 1.741-1.805s1.741 0.808 1.741 1.805z"></path>
<path fill="#f8d24e" style="fill: var(--color2, #f8d24e)" d="M17.697 23.277c0 0.997-0.779 1.805-1.741 1.805s-1.741-0.808-1.741-1.805c0-0.997 0.779-1.805 1.741-1.805s1.741 0.808 1.741 1.805z"></path>
<path fill="#f8d24e" style="fill: var(--color2, #f8d24e)" d="M21.757 20.871c0 0.997-0.779 1.805-1.741 1.805s-1.741-0.808-1.741-1.805c0-0.997 0.779-1.805 1.741-1.805s1.741 0.808 1.741 1.805z"></path>
<path fill="#f8d24e" style="fill: var(--color2, #f8d24e)" d="M14.504 29.895c0 0.997-0.779 1.805-1.741 1.805s-1.741-0.808-1.741-1.805c0-0.997 0.779-1.805 1.741-1.805s1.741 0.808 1.741 1.805z"></path>
<path fill="#f8d24e" style="fill: var(--color2, #f8d24e)" d="M18.276 27.488c0 0.997-0.779 1.805-1.741 1.805s-1.741-0.808-1.741-1.805c0-0.997 0.779-1.805 1.741-1.805s1.741 0.808 1.741 1.805z"></path>
<path fill="#f8d24e" style="fill: var(--color2, #f8d24e)" d="M22.629 24.781c0 0.997-0.779 1.805-1.741 1.805s-1.741-0.808-1.741-1.805c0-0.997 0.779-1.805 1.741-1.805s1.741 0.808 1.741 1.805z"></path>
<path fill="#f8d24e" style="fill: var(--color2, #f8d24e)" d="M26.689 22.375c0 0.997-0.779 1.805-1.741 1.805s-1.741-0.808-1.741-1.805c0-0.997 0.779-1.805 1.741-1.805s1.741 0.808 1.741 1.805z"></path>
<path fill="#f8d24e" style="fill: var(--color2, #f8d24e)" d="M20.888 30.196c0 0.997-0.779 1.805-1.741 1.805s-1.741-0.808-1.741-1.805c0-0.997 0.779-1.805 1.741-1.805s1.741 0.808 1.741 1.805z"></path>
<path fill="#f8d24e" style="fill: var(--color2, #f8d24e)" d="M24.659 27.789c0 0.997-0.779 1.805-1.741 1.805s-1.741-0.808-1.741-1.805c0-0.997 0.779-1.805 1.741-1.805s1.741 0.808 1.741 1.805z"></path>
<path fill="#f8d24e" style="fill: var(--color2, #f8d24e)" d="M29.011 25.082c0 0.997-0.779 1.805-1.741 1.805s-1.741-0.808-1.741-1.805c0-0.997 0.779-1.805 1.741-1.805s1.741 0.808 1.741 1.805z"></path>
<path fill="#f8d24e" style="fill: var(--color2, #f8d24e)" d="M33.072 22.676c0 0.997-0.779 1.805-1.741 1.805s-1.741-0.808-1.741-1.805c0-0.997 0.779-1.805 1.741-1.805s1.741 0.808 1.741 1.805z"></path>
<path fill="#f8d24e" style="fill: var(--color2, #f8d24e)" d="M28.431 30.195c0 0.997-0.779 1.805-1.741 1.805s-1.741-0.808-1.741-1.805c0-0.997 0.779-1.805 1.741-1.805s1.741 0.808 1.741 1.805z"></path>
<path fill="#f8d24e" style="fill: var(--color2, #f8d24e)" d="M32.202 27.789c0 0.997-0.779 1.805-1.741 1.805s-1.741-0.808-1.741-1.805c0-0.997 0.779-1.805 1.741-1.805s1.741 0.808 1.741 1.805z"></path>
<path fill="#f8d24e" style="fill: var(--color2, #f8d24e)" d="M36.554 25.082c0 0.997-0.779 1.805-1.741 1.805s-1.741-0.808-1.741-1.805c0-0.997 0.779-1.805 1.741-1.805s1.741 0.808 1.741 1.805z"></path>
<path fill="#f8d24e" style="fill: var(--color2, #f8d24e)" d="M40.616 22.676c0 0.997-0.779 1.805-1.741 1.805s-1.741-0.808-1.741-1.805c0-0.997 0.779-1.805 1.741-1.805s1.741 0.808 1.741 1.805z"></path>
<path fill="#f8d24e" style="fill: var(--color2, #f8d24e)" d="M34.812 29.894c0 0.997-0.779 1.805-1.741 1.805s-1.741-0.808-1.741-1.805c0-0.997 0.779-1.805 1.741-1.805s1.741 0.808 1.741 1.805z"></path>
<path fill="#f8d24e" style="fill: var(--color2, #f8d24e)" d="M38.583 27.488c0 0.997-0.779 1.805-1.741 1.805s-1.741-0.808-1.741-1.805c0-0.997 0.779-1.805 1.741-1.805s1.741 0.808 1.741 1.805z"></path>
<path fill="#f8d24e" style="fill: var(--color2, #f8d24e)" d="M42.936 24.781c0 0.997-0.779 1.805-1.741 1.805s-1.741-0.808-1.741-1.805c0-0.997 0.779-1.805 1.741-1.805s1.741 0.808 1.741 1.805z"></path>
<path fill="#f8d24e" style="fill: var(--color2, #f8d24e)" d="M46.996 22.375c0 0.997-0.779 1.805-1.741 1.805s-1.741-0.808-1.741-1.805c0-0.997 0.779-1.805 1.741-1.805s1.741 0.808 1.741 1.805z"></path>
<path fill="#f8d24e" style="fill: var(--color2, #f8d24e)" d="M42.065 29.594c0 0.997-0.779 1.805-1.741 1.805s-1.741-0.808-1.741-1.805c0-0.997 0.779-1.805 1.741-1.805s1.741 0.808 1.741 1.805z"></path>
<path fill="#f8d24e" style="fill: var(--color2, #f8d24e)" d="M45.836 27.187c0 0.997-0.779 1.805-1.741 1.805s-1.741-0.808-1.741-1.805c0-0.997 0.779-1.805 1.741-1.805s1.741 0.808 1.741 1.805z"></path>
<path fill="#f8d24e" style="fill: var(--color2, #f8d24e)" d="M50.188 24.481c0 0.997-0.779 1.805-1.741 1.805s-1.741-0.808-1.741-1.805c0-0.997 0.779-1.805 1.741-1.805s1.741 0.808 1.741 1.805z"></path>
<path fill="#f8d24e" style="fill: var(--color2, #f8d24e)" d="M54.249 22.074c0 0.997-0.779 1.805-1.741 1.805s-1.741-0.808-1.741-1.805c0-0.997 0.779-1.805 1.741-1.805s1.741 0.808 1.741 1.805z"></path>
<path fill="#f8d24e" style="fill: var(--color2, #f8d24e)" d="M48.737 21.773c0 0.997-0.779 1.805-1.741 1.805s-1.741-0.808-1.741-1.805c0-0.997 0.779-1.805 1.741-1.805s1.741 0.808 1.741 1.805z"></path>
<path fill="#f8d24e" style="fill: var(--color2, #f8d24e)" d="M52.508 19.367c0 0.997-0.779 1.805-1.741 1.805s-1.741-0.808-1.741-1.805c0-0.997 0.779-1.805 1.741-1.805s1.741 0.808 1.741 1.805z"></path>
<path fill="#f8d24e" style="fill: var(--color2, #f8d24e)" d="M56.86 16.66c0 0.997-0.779 1.805-1.741 1.805s-1.741-0.808-1.741-1.805c0-0.997 0.779-1.805 1.741-1.805s1.741 0.808 1.741 1.805z"></path>
<path fill="#f8d24e" style="fill: var(--color2, #f8d24e)" d="M60.922 14.254c0 0.997-0.779 1.805-1.741 1.805s-1.741-0.808-1.741-1.805c0-0.997 0.779-1.805 1.741-1.805s1.741 0.808 1.741 1.805z"></path>
</symbol>
<symbol id="header-bg-points-tab" viewBox="0 0 361 32">
<path fill="#f8d24e" style="fill: var(--color2, #f8d24e)" d="M309.949 29.706c0 0.999-0.789 1.808-1.762 1.808s-1.762-0.809-1.762-1.808c0-0.999 0.789-1.808 1.762-1.808s1.762 0.809 1.762 1.808z"></path>
<path fill="#f8d24e" style="fill: var(--color2, #f8d24e)" d="M313.767 27.295c0 0.999-0.789 1.808-1.762 1.808s-1.762-0.809-1.762-1.808c0-0.999 0.789-1.808 1.762-1.808s1.762 0.809 1.762 1.808z"></path>
<path fill="#f8d24e" style="fill: var(--color2, #f8d24e)" d="M318.172 24.583c0 0.999-0.789 1.808-1.762 1.808s-1.762-0.809-1.762-1.808c0-0.999 0.789-1.808 1.762-1.808s1.762 0.809 1.762 1.808z"></path>
<path fill="#f8d24e" style="fill: var(--color2, #f8d24e)" d="M322.284 22.172c0 0.999-0.789 1.808-1.762 1.808s-1.762-0.809-1.762-1.808c0-0.999 0.789-1.808 1.762-1.808s1.762 0.809 1.762 1.808z"></path>
<path fill="#f8d24e" style="fill: var(--color2, #f8d24e)" d="M319.935 28.5c0 0.999-0.789 1.808-1.762 1.808s-1.762-0.809-1.762-1.808c0-0.999 0.789-1.808 1.762-1.808s1.762 0.809 1.762 1.808z"></path>
<path fill="#f8d24e" style="fill: var(--color2, #f8d24e)" d="M323.752 26.090c0 0.999-0.789 1.808-1.762 1.808s-1.762-0.809-1.762-1.808c0-0.999 0.789-1.808 1.762-1.808s1.762 0.809 1.762 1.808z"></path>
<path fill="#f8d24e" style="fill: var(--color2, #f8d24e)" d="M328.158 23.378c0 0.999-0.789 1.808-1.762 1.808s-1.762-0.809-1.762-1.808c0-0.999 0.789-1.808 1.762-1.808s1.762 0.809 1.762 1.808z"></path>
<path fill="#f8d24e" style="fill: var(--color2, #f8d24e)" d="M332.27 20.967c0 0.999-0.789 1.808-1.762 1.808s-1.762-0.809-1.762-1.808c0-0.999 0.789-1.808 1.762-1.808s1.762 0.809 1.762 1.808z"></path>
<path fill="#f8d24e" style="fill: var(--color2, #f8d24e)" d="M328.452 27.596c0 0.999-0.789 1.808-1.762 1.808s-1.762-0.809-1.762-1.808c0-0.999 0.789-1.808 1.762-1.808s1.762 0.809 1.762 1.808z"></path>
<path fill="#f8d24e" style="fill: var(--color2, #f8d24e)" d="M332.27 25.185c0 0.999-0.789 1.808-1.762 1.808s-1.762-0.809-1.762-1.808c0-0.999 0.789-1.808 1.762-1.808s1.762 0.809 1.762 1.808z"></path>
<path fill="#f8d24e" style="fill: var(--color2, #f8d24e)" d="M336.675 22.473c0 0.999-0.789 1.808-1.762 1.808s-1.762-0.809-1.762-1.808c0-0.999 0.789-1.808 1.762-1.808s1.762 0.809 1.762 1.808z"></path>
<path fill="#f8d24e" style="fill: var(--color2, #f8d24e)" d="M340.786 20.063c0 0.999-0.789 1.808-1.762 1.808s-1.762-0.809-1.762-1.808c0-0.999 0.789-1.808 1.762-1.808s1.762 0.809 1.762 1.808z"></path>
<path fill="#f8d24e" style="fill: var(--color2, #f8d24e)" d="M336.675 26.391c0 0.999-0.789 1.808-1.762 1.808s-1.762-0.809-1.762-1.808c0-0.999 0.789-1.808 1.762-1.808s1.762 0.809 1.762 1.808z"></path>
<path fill="#f8d24e" style="fill: var(--color2, #f8d24e)" d="M340.493 23.98c0 0.999-0.789 1.808-1.762 1.808s-1.762-0.809-1.762-1.808c0-0.999 0.789-1.808 1.762-1.808s1.762 0.809 1.762 1.808z"></path>
<path fill="#f8d24e" style="fill: var(--color2, #f8d24e)" d="M344.898 21.268c0 0.999-0.789 1.808-1.762 1.808s-1.762-0.809-1.762-1.808c0-0.999 0.789-1.808 1.762-1.808s1.762 0.809 1.762 1.808z"></path>
<path fill="#f8d24e" style="fill: var(--color2, #f8d24e)" d="M349.010 18.858c0 0.999-0.789 1.808-1.762 1.808s-1.762-0.809-1.762-1.808c0-0.999 0.789-1.808 1.762-1.808s1.762 0.809 1.762 1.808z"></path>
<path fill="#f8d24e" style="fill: var(--color2, #f8d24e)" d="M339.318 29.706c0 0.999-0.789 1.808-1.762 1.808s-1.762-0.809-1.762-1.808c0-0.999 0.789-1.808 1.762-1.808s1.762 0.809 1.762 1.808z"></path>
<path fill="#f8d24e" style="fill: var(--color2, #f8d24e)" d="M343.136 27.295c0 0.999-0.789 1.808-1.762 1.808s-1.762-0.809-1.762-1.808c0-0.999 0.789-1.808 1.762-1.808s1.762 0.809 1.762 1.808z"></path>
<path fill="#f8d24e" style="fill: var(--color2, #f8d24e)" d="M348.422 30.007c0 0.999-0.789 1.808-1.762 1.808s-1.762-0.809-1.762-1.808c0-0.999 0.789-1.808 1.762-1.808s1.762 0.809 1.762 1.808z"></path>
<path fill="#f8d24e" style="fill: var(--color2, #f8d24e)" d="M347.541 24.583c0 0.999-0.789 1.808-1.762 1.808s-1.762-0.809-1.762-1.808c0-0.999 0.789-1.808 1.762-1.808s1.762 0.809 1.762 1.808z"></path>
<path fill="#f8d24e" style="fill: var(--color2, #f8d24e)" d="M352.828 27.295c0 0.999-0.789 1.808-1.762 1.808s-1.762-0.809-1.762-1.808c0-0.999 0.789-1.808 1.762-1.808s1.762 0.809 1.762 1.808z"></path>
<path fill="#f8d24e" style="fill: var(--color2, #f8d24e)" d="M356.939 30.007c0 0.999-0.789 1.808-1.762 1.808s-1.762-0.809-1.762-1.808c0-0.999 0.789-1.808 1.762-1.808s1.762 0.809 1.762 1.808z"></path>
<path fill="#f8d24e" style="fill: var(--color2, #f8d24e)" d="M351.653 22.172c0 0.999-0.789 1.808-1.762 1.808s-1.762-0.809-1.762-1.808c0-0.999 0.789-1.808 1.762-1.808s1.762 0.809 1.762 1.808z"></path>
<path fill="#f8d24e" style="fill: var(--color2, #f8d24e)" d="M356.939 24.884c0 0.999-0.789 1.808-1.762 1.808s-1.762-0.809-1.762-1.808c0-0.999 0.789-1.808 1.762-1.808s1.762 0.809 1.762 1.808z"></path>
<path fill="#f8d24e" style="fill: var(--color2, #f8d24e)" d="M361.051 27.596c0 0.999-0.789 1.808-1.762 1.808s-1.762-0.809-1.762-1.808c0-0.999 0.789-1.808 1.762-1.808s1.762 0.809 1.762 1.808z"></path>
<path fill="#f8d24e" style="fill: var(--color2, #f8d24e)" d="M292.034 9.818c0 0.999-0.789 1.808-1.762 1.808s-1.762-0.809-1.762-1.808c0-0.999 0.789-1.808 1.762-1.808s1.762 0.809 1.762 1.808z"></path>
<path fill="#f8d24e" style="fill: var(--color2, #f8d24e)" d="M295.852 7.408c0 0.999-0.789 1.808-1.762 1.808s-1.762-0.809-1.762-1.808c0-0.999 0.789-1.808 1.762-1.808s1.762 0.809 1.762 1.808z"></path>
<path fill="#f8d24e" style="fill: var(--color2, #f8d24e)" d="M300.258 4.696c0 0.999-0.789 1.808-1.762 1.808s-1.762-0.809-1.762-1.808c0-0.999 0.789-1.808 1.762-1.808s1.762 0.809 1.762 1.808z"></path>
<path fill="#f8d24e" style="fill: var(--color2, #f8d24e)" d="M304.368 2.285c0 0.999-0.789 1.808-1.762 1.808s-1.762-0.809-1.762-1.808c0-0.999 0.789-1.808 1.762-1.808s1.762 0.809 1.762 1.808z"></path>
<path fill="#f8d24e" style="fill: var(--color2, #f8d24e)" d="M284.692 9.516c0 0.999-0.789 1.808-1.762 1.808s-1.762-0.809-1.762-1.808c0-0.999 0.789-1.808 1.762-1.808s1.762 0.809 1.762 1.808z"></path>
<path fill="#f8d24e" style="fill: var(--color2, #f8d24e)" d="M288.51 7.106c0 0.999-0.789 1.808-1.762 1.808s-1.762-0.809-1.762-1.808c0-0.999 0.789-1.808 1.762-1.808s1.762 0.809 1.762 1.808z"></path>
<path fill="#f8d24e" style="fill: var(--color2, #f8d24e)" d="M292.915 4.394c0 0.999-0.789 1.808-1.762 1.808s-1.762-0.809-1.762-1.808c0-0.999 0.789-1.808 1.762-1.808s1.762 0.809 1.762 1.808z"></path>
<path fill="#f8d24e" style="fill: var(--color2, #f8d24e)" d="M297.027 1.984c0 0.999-0.789 1.808-1.762 1.808s-1.762-0.809-1.762-1.808c0-0.999 0.789-1.808 1.762-1.808s1.762 0.809 1.762 1.808z"></path>
<path fill="#f8d24e" style="fill: var(--color2, #f8d24e)" d="M301.139 29.706c0 0.999-0.789 1.808-1.762 1.808s-1.762-0.809-1.762-1.808c0-0.999 0.789-1.808 1.762-1.808s1.762 0.809 1.762 1.808z"></path>
<path fill="#f8d24e" style="fill: var(--color2, #f8d24e)" d="M304.956 27.295c0 0.999-0.789 1.808-1.762 1.808s-1.762-0.809-1.762-1.808c0-0.999 0.789-1.808 1.762-1.808s1.762 0.809 1.762 1.808z"></path>
<path fill="#f8d24e" style="fill: var(--color2, #f8d24e)" d="M309.362 24.583c0 0.999-0.789 1.808-1.762 1.808s-1.762-0.809-1.762-1.808c0-0.999 0.789-1.808 1.762-1.808s1.762 0.809 1.762 1.808z"></path>
<path fill="#f8d24e" style="fill: var(--color2, #f8d24e)" d="M313.474 22.172c0 0.999-0.789 1.808-1.762 1.808s-1.762-0.809-1.762-1.808c0-0.999 0.789-1.808 1.762-1.808s1.762 0.809 1.762 1.808z"></path>
<path fill="#f8d24e" style="fill: var(--color2, #f8d24e)" d="M296.44 27.898c0 0.999-0.789 1.808-1.762 1.808s-1.762-0.809-1.762-1.808c0-0.999 0.789-1.808 1.762-1.808s1.762 0.809 1.762 1.808z"></path>
<path fill="#f8d24e" style="fill: var(--color2, #f8d24e)" d="M300.258 25.487c0 0.999-0.789 1.808-1.762 1.808s-1.762-0.809-1.762-1.808c0-0.999 0.789-1.808 1.762-1.808s1.762 0.809 1.762 1.808z"></path>
<path fill="#f8d24e" style="fill: var(--color2, #f8d24e)" d="M304.663 22.775c0 0.999-0.789 1.808-1.762 1.808s-1.762-0.809-1.762-1.808c0-0.999 0.789-1.808 1.762-1.808s1.762 0.809 1.762 1.808z"></path>
<path fill="#f8d24e" style="fill: var(--color2, #f8d24e)" d="M308.775 20.365c0 0.999-0.789 1.808-1.762 1.808s-1.762-0.809-1.762-1.808c0-0.999 0.789-1.808 1.762-1.808s1.762 0.809 1.762 1.808z"></path>
<path fill="#f8d24e" style="fill: var(--color2, #f8d24e)" d="M298.201 21.57c0 0.999-0.789 1.808-1.762 1.808s-1.762-0.809-1.762-1.808c0-0.999 0.789-1.808 1.762-1.808s1.762 0.809 1.762 1.808z"></path>
<path fill="#f8d24e" style="fill: var(--color2, #f8d24e)" d="M302.019 19.16c0 0.999-0.789 1.808-1.762 1.808s-1.762-0.809-1.762-1.808c0-0.999 0.789-1.808 1.762-1.808s1.762 0.809 1.762 1.808z"></path>
<path fill="#f8d24e" style="fill: var(--color2, #f8d24e)" d="M306.425 16.447c0 0.999-0.789 1.808-1.762 1.808s-1.762-0.809-1.762-1.808c0-0.999 0.789-1.808 1.762-1.808s1.762 0.809 1.762 1.808z"></path>
<path fill="#f8d24e" style="fill: var(--color2, #f8d24e)" d="M310.536 14.037c0 0.999-0.789 1.808-1.762 1.808s-1.762-0.809-1.762-1.808c0-0.999 0.789-1.808 1.762-1.808s1.762 0.809 1.762 1.808z"></path>
<path fill="#f8d24e" style="fill: var(--color2, #f8d24e)" d="M298.201 11.024c0 0.999-0.789 1.808-1.762 1.808s-1.762-0.809-1.762-1.808c0-0.999 0.789-1.808 1.762-1.808s1.762 0.809 1.762 1.808z"></path>
<path fill="#f8d24e" style="fill: var(--color2, #f8d24e)" d="M302.019 8.613c0 0.999-0.789 1.808-1.762 1.808s-1.762-0.809-1.762-1.808c0-0.999 0.789-1.808 1.762-1.808s1.762 0.809 1.762 1.808z"></path>
<path fill="#f8d24e" style="fill: var(--color2, #f8d24e)" d="M306.425 5.901c0 0.999-0.789 1.808-1.762 1.808s-1.762-0.809-1.762-1.808c0-0.999 0.789-1.808 1.762-1.808s1.762 0.809 1.762 1.808z"></path>
<path fill="#f8d24e" style="fill: var(--color2, #f8d24e)" d="M310.536 3.49c0 0.999-0.789 1.808-1.762 1.808s-1.762-0.809-1.762-1.808c0-0.999 0.789-1.808 1.762-1.808s1.762 0.809 1.762 1.808z"></path>
<path fill="#f8d24e" style="fill: var(--color2, #f8d24e)" d="M297.321 16.749c0 0.999-0.789 1.808-1.762 1.808s-1.762-0.809-1.762-1.808c0-0.999 0.789-1.808 1.762-1.808s1.762 0.809 1.762 1.808z"></path>
<path fill="#f8d24e" style="fill: var(--color2, #f8d24e)" d="M301.139 14.338c0 0.999-0.789 1.808-1.762 1.808s-1.762-0.809-1.762-1.808c0-0.999 0.789-1.808 1.762-1.808s1.762 0.809 1.762 1.808z"></path>
<path fill="#f8d24e" style="fill: var(--color2, #f8d24e)" d="M305.544 11.626c0 0.999-0.789 1.808-1.762 1.808s-1.762-0.809-1.762-1.808c0-0.999 0.789-1.808 1.762-1.808s1.762 0.809 1.762 1.808z"></path>
<path fill="#f8d24e" style="fill: var(--color2, #f8d24e)" d="M309.656 9.216c0 0.999-0.789 1.808-1.762 1.808s-1.762-0.809-1.762-1.808c0-0.999 0.789-1.808 1.762-1.808s1.762 0.809 1.762 1.808z"></path>
<path fill="#f8d24e" style="fill: var(--color2, #f8d24e)" d="M278.819 8.010c0 0.999-0.789 1.808-1.762 1.808s-1.762-0.809-1.762-1.808c0-0.999 0.789-1.808 1.762-1.808s1.762 0.809 1.762 1.808z"></path>
<path fill="#f8d24e" style="fill: var(--color2, #f8d24e)" d="M282.637 5.6c0 0.999-0.789 1.808-1.762 1.808s-1.762-0.809-1.762-1.808c0-0.999 0.789-1.808 1.762-1.808s1.762 0.809 1.762 1.808z"></path>
<path fill="#f8d24e" style="fill: var(--color2, #f8d24e)" d="M287.042 2.888c0 0.999-0.789 1.808-1.762 1.808s-1.762-0.809-1.762-1.808c0-0.999 0.789-1.808 1.762-1.808s1.762 0.809 1.762 1.808z"></path>
<path fill="#f8d24e" style="fill: var(--color2, #f8d24e)" d="M284.986 9.818c0.973 0 1.762-0.809 1.762-1.808s-0.789-1.808-1.762-1.808-1.762 0.809-1.762 1.808 0.789 1.808 1.762 1.808z"></path>
<path fill="#f8d24e" style="fill: var(--color2, #f8d24e)" d="M3.525 28.466c0 0.999-0.789 1.808-1.762 1.808s-1.762-0.809-1.762-1.808c0-0.999 0.789-1.808 1.762-1.808s1.762 0.809 1.762 1.808z"></path>
<path fill="#f8d24e" style="fill: var(--color2, #f8d24e)" d="M7.342 26.055c0 0.999-0.789 1.808-1.762 1.808s-1.762-0.809-1.762-1.808c0-0.999 0.789-1.808 1.762-1.808s1.762 0.809 1.762 1.808z"></path>
<path fill="#f8d24e" style="fill: var(--color2, #f8d24e)" d="M11.748 23.344c0 0.999-0.789 1.808-1.762 1.808s-1.762-0.809-1.762-1.808c0-0.999 0.789-1.808 1.762-1.808s1.762 0.809 1.762 1.808z"></path>
<path fill="#f8d24e" style="fill: var(--color2, #f8d24e)" d="M15.859 20.933c0 0.999-0.789 1.808-1.762 1.808s-1.762-0.809-1.762-1.808c0-0.999 0.789-1.808 1.762-1.808s1.762 0.809 1.762 1.808z"></path>
<path fill="#f8d24e" style="fill: var(--color2, #f8d24e)" d="M25.845 29.37c0 0.999-0.789 1.808-1.762 1.808s-1.762-0.809-1.762-1.808c0-0.999 0.789-1.808 1.762-1.808s1.762 0.809 1.762 1.808z"></path>
<path fill="#f8d24e" style="fill: var(--color2, #f8d24e)" d="M29.663 26.959c0 0.999-0.789 1.808-1.762 1.808s-1.762-0.809-1.762-1.808c0-0.999 0.789-1.808 1.762-1.808s1.762 0.809 1.762 1.808z"></path>
<path fill="#f8d24e" style="fill: var(--color2, #f8d24e)" d="M34.068 24.248c0 0.999-0.789 1.808-1.762 1.808s-1.762-0.809-1.762-1.808c0-0.999 0.789-1.808 1.762-1.808s1.762 0.809 1.762 1.808z"></path>
<path fill="#f8d24e" style="fill: var(--color2, #f8d24e)" d="M38.179 21.837c0 0.999-0.789 1.808-1.762 1.808s-1.762-0.809-1.762-1.808c0-0.999 0.789-1.808 1.762-1.808s1.762 0.809 1.762 1.808z"></path>
<path fill="#f8d24e" style="fill: var(--color2, #f8d24e)" d="M34.949 28.164c0 0.999-0.789 1.808-1.762 1.808s-1.762-0.809-1.762-1.808c0-0.999 0.789-1.808 1.762-1.808s1.762 0.809 1.762 1.808z"></path>
<path fill="#f8d24e" style="fill: var(--color2, #f8d24e)" d="M38.767 25.754c0 0.999-0.789 1.808-1.762 1.808s-1.762-0.809-1.762-1.808c0-0.999 0.789-1.808 1.762-1.808s1.762 0.809 1.762 1.808z"></path>
<path fill="#f8d24e" style="fill: var(--color2, #f8d24e)" d="M43.172 23.042c0 0.999-0.789 1.808-1.762 1.808s-1.762-0.809-1.762-1.808c0-0.999 0.789-1.808 1.762-1.808s1.762 0.809 1.762 1.808z"></path>
<path fill="#f8d24e" style="fill: var(--color2, #f8d24e)" d="M47.284 20.631c0 0.999-0.789 1.808-1.762 1.808s-1.762-0.809-1.762-1.808c0-0.999 0.789-1.808 1.762-1.808s1.762 0.809 1.762 1.808z"></path>
<path fill="#f8d24e" style="fill: var(--color2, #f8d24e)" d="M51.689 17.016c0 0.999-0.789 1.808-1.762 1.808s-1.762-0.809-1.762-1.808c0-0.999 0.789-1.808 1.762-1.808s1.762 0.809 1.762 1.808z"></path>
<path fill="#f8d24e" style="fill: var(--color2, #f8d24e)" d="M42.291 19.125c0 0.999-0.789 1.808-1.762 1.808s-1.762-0.809-1.762-1.808c0-0.999 0.789-1.808 1.762-1.808s1.762 0.809 1.762 1.808z"></path>
<path fill="#f8d24e" style="fill: var(--color2, #f8d24e)" d="M17.622 29.069c0 0.999-0.789 1.808-1.762 1.808s-1.762-0.809-1.762-1.808c0-0.999 0.789-1.808 1.762-1.808s1.762 0.809 1.762 1.808z"></path>
<path fill="#f8d24e" style="fill: var(--color2, #f8d24e)" d="M21.44 26.658c0 0.999-0.789 1.808-1.762 1.808s-1.762-0.809-1.762-1.808c0-0.999 0.789-1.808 1.762-1.808s1.762 0.809 1.762 1.808z"></path>
<path fill="#f8d24e" style="fill: var(--color2, #f8d24e)" d="M25.845 23.946c0 0.999-0.789 1.808-1.762 1.808s-1.762-0.809-1.762-1.808c0-0.999 0.789-1.808 1.762-1.808s1.762 0.809 1.762 1.808z"></path>
<path fill="#f8d24e" style="fill: var(--color2, #f8d24e)" d="M29.956 21.536c0 0.999-0.789 1.808-1.762 1.808s-1.762-0.809-1.762-1.808c0-0.999 0.789-1.808 1.762-1.808s1.762 0.809 1.762 1.808z"></path>
<path fill="#f8d24e" style="fill: var(--color2, #f8d24e)" d="M10.28 28.767c0 0.999-0.789 1.808-1.762 1.808s-1.762-0.809-1.762-1.808c0-0.999 0.789-1.808 1.762-1.808s1.762 0.809 1.762 1.808z"></path>
<path fill="#f8d24e" style="fill: var(--color2, #f8d24e)" d="M14.097 26.356c0 0.999-0.789 1.808-1.762 1.808s-1.762-0.809-1.762-1.808c0-0.999 0.789-1.808 1.762-1.808s1.762 0.809 1.762 1.808z"></path>
<path fill="#f8d24e" style="fill: var(--color2, #f8d24e)" d="M18.503 23.645c0 0.999-0.789 1.808-1.762 1.808s-1.762-0.809-1.762-1.808c0-0.999 0.789-1.808 1.762-1.808s1.762 0.809 1.762 1.808z"></path>
<path fill="#f8d24e" style="fill: var(--color2, #f8d24e)" d="M22.614 21.234c0 0.999-0.789 1.808-1.762 1.808s-1.762-0.809-1.762-1.808c0-0.999 0.789-1.808 1.762-1.808s1.762 0.809 1.762 1.808z"></path>
</symbol>
<symbol id="header-menu-close-btn" viewBox="0 0 32 32">
<path fill="#fcfcfc" style="fill: var(--color1, #fcfcfc)" d="M23.884 6.706l-7.884 7.884-7.884-7.884c-0.177-0.162-0.414-0.262-0.674-0.262-0.551 0-0.998 0.447-0.998 0.998 0 0.26 0.099 0.497 0.262 0.674l-0.001-0.001 7.88 7.884-7.882 7.882c-0.181 0.181-0.293 0.43-0.293 0.706 0 0.551 0.447 0.998 0.998 0.998 0.275 0 0.524-0.111 0.705-0.292v0l7.886-7.882 7.884 7.884c0.177 0.162 0.414 0.262 0.674 0.262 0.551 0 0.998-0.447 0.998-0.998 0-0.26-0.099-0.497-0.262-0.674l0.001 0.001-7.884-7.884 7.884-7.886c0.181-0.181 0.293-0.43 0.293-0.706 0-0.551-0.447-0.998-0.998-0.998-0.275 0-0.524 0.111-0.705 0.292v0 0.002z"></path>
</symbol>
<symbol id="header-menu-open-btn" viewBox="0 0 32 32">
<path fill="none" stroke="#fff" style="stroke: var(--color3, #fff)" stroke-linejoin="miter" stroke-linecap="round" stroke-miterlimit="4" stroke-width="2" d="M6 10h20M6 16h20M6 22h20"></path>
</symbol>
<symbol id="header-modal-close-btn" viewBox="0 0 32 32">
<path d="M17.253 16l7.37-7.37c0.13-0.154 0.209-0.354 0.209-0.573 0-0.491-0.398-0.89-0.89-0.89-0.219 0-0.42 0.079-0.575 0.211l0.001-0.001-7.368 7.37-7.37-7.378c-0.159-0.147-0.372-0.237-0.606-0.237-0.493 0-0.893 0.4-0.893 0.893 0 0.234 0.090 0.447 0.237 0.606l-0.001-0.001 7.378 7.37-7.376 7.368c-0.194 0.164-0.316 0.408-0.316 0.68 0 0.491 0.398 0.89 0.89 0.89 0.272 0 0.515-0.122 0.678-0.314l0.001-0.001 7.376-7.37 7.37 7.37c0.155 0.133 0.357 0.214 0.579 0.214 0.491 0 0.89-0.398 0.89-0.89 0-0.222-0.081-0.424-0.215-0.58l0.001 0.001-7.37-7.368z"></path>
</symbol>
<symbol id="header-modal-open-btn" viewBox="0 0 32 32">
<path stroke-linejoin="round" stroke-linecap="round" stroke-miterlimit="4" stroke-width="5.3333" d="M10.667 5.333l13.2 10.667-13.2 10.667"></path>
</symbol>
<symbol id="modal-mail" viewBox="0 0 43 32">
<path d="M37.333 0h-32c-2.2 0-3.981 1.8-3.981 4l-0.019 24c0 2.2 1.8 4 4 4h32c2.2 0 4-1.8 4-4v-24c0-2.2-1.8-4-4-4zM36.533 8.501l-14.139 8.837c-0.302 0.188-0.668 0.3-1.060 0.3s-0.758-0.112-1.069-0.305l0.009 0.005-14.141-8.84c-0.503-0.301-0.835-0.843-0.835-1.463 0-0.938 0.761-1.699 1.699-1.699 0.349 0 0.673 0.105 0.943 0.285l-0.006-0.004 13.4 8.381 13.4-8.381c0.264-0.176 0.588-0.282 0.937-0.282 0.938 0 1.699 0.761 1.699 1.699 0 0.62-0.332 1.162-0.828 1.459l-0.008 0.004z"></path>
</symbol>
<symbol id="modal-mark" viewBox="0 0 42 32">
<path fill="#fff" style="fill: var(--color3, #fff); stroke: var(--color3, #fff)" stroke="#fff" stroke-linejoin="miter" stroke-linecap="butt" stroke-miterlimit="4" stroke-width="0.64" d="M6.262 15.206l-0.221-0.211-0.221 0.208-3.085 2.925 0.243 0.234 11.408 10.88 0.221-0.211 24.256-23.139-0.243-0.23-3.043-2.902-0.221 0.211-20.97 19.987-8.125-7.75z"></path>
</symbol>
<symbol id="modal-phone" viewBox="0 0 32 32">
<path d="M27.419 20.853l-4.201-0.48c-0.116-0.014-0.25-0.023-0.385-0.023-0.909 0-1.732 0.369-2.328 0.964l-3.045 3.045c-4.718-2.435-8.467-6.185-10.835-10.764l-0.065-0.139 3.063-3.056c0.596-0.596 0.964-1.419 0.964-2.328 0-0.136-0.008-0.27-0.024-0.401l0.002 0.016-0.48-4.169c-0.199-1.655-1.595-2.926-3.287-2.926-0.001 0-0.003 0-0.004 0h-2.861c-1.87-0.005-3.424 1.55-3.31 3.417 0.878 14.126 12.176 25.408 26.286 26.286 1.867 0.114 3.424-1.44 3.424-3.31v-2.862c0-0.005 0-0.010 0-0.016 0-1.681-1.266-3.067-2.897-3.256l-0.015-0.001z"></path>
</symbol>
<symbol id="modal-user" viewBox="0 0 32 32">
<path d="M16 16c4.418 0 8-3.582 8-8s-3.582-8-8-8v0c-4.418 0-8 3.582-8 8s3.582 8 8 8v0zM16 20c-5.339 0-16 2.68-16 8v2c0 1.099 0.901 2 2 2h28c1.099 0 2-0.901 2-2v-2c0-5.32-10.661-8-16-8z"></path>
</symbol>
</defs>
</svg>
